<svg width="48" height="45" viewBox="0 0 48 45" fill="none" xmlns="http://www.w3.org/2000/svg">
<rect x="0.910156" y="0.484375" width="46.8044" height="44.5025" rx="15" fill="#FF756C"/>
<path d="M22.3799 33.2463C22.2308 33.1833 22.1068 33.0725 22.0276 32.9312C21.9484 32.79 21.9185 32.6264 21.9426 32.4663L23.2692 23.8286H19.7485C19.6369 23.8316 19.5261 23.8089 19.4246 23.7623C19.3232 23.7157 19.2338 23.6464 19.1633 23.5598C19.0929 23.4731 19.0433 23.3715 19.0184 23.2626C18.9935 23.1538 18.9939 23.0407 19.0196 22.932L21.2064 13.4561C21.2448 13.293 21.3383 13.1481 21.4711 13.0459C21.6039 12.9437 21.7678 12.8903 21.9353 12.8948H29.2245C29.3334 12.8944 29.441 12.9185 29.5394 12.9651C29.6378 13.0118 29.7244 13.0799 29.7931 13.1645C29.8626 13.25 29.9119 13.3502 29.9371 13.4575C29.9624 13.5649 29.963 13.6765 29.9388 13.7841L28.6778 19.4551H32.1402C32.2768 19.4548 32.4107 19.4929 32.5267 19.5651C32.6427 19.6373 32.7361 19.7406 32.7962 19.8633C32.8484 19.981 32.8685 20.1105 32.8545 20.2386C32.8404 20.3666 32.7926 20.4886 32.716 20.5922L23.2401 32.9838C23.176 33.0788 23.0905 33.1573 22.9905 33.213C22.8904 33.2687 22.7786 33.3001 22.6642 33.3046C22.5667 33.3028 22.4703 33.283 22.3799 33.2463V33.2463Z" fill="white"/>
</svg>
