<svg width="48" height="46" viewBox="0 0 48 46" fill="none" xmlns="http://www.w3.org/2000/svg">
<rect x="0.910156" y="0.644531" width="46.8044" height="44.5025" rx="15" fill="#00A3FF"/>
<path d="M13.918 17.5546C13.918 20.4943 15.7984 22.1699 18.3152 22.1699C20.832 22.1699 22.7124 20.4943 22.7124 17.5546C22.7124 14.6444 20.832 12.9688 18.3152 12.9688C15.7984 12.9688 13.918 14.6444 13.918 17.5546ZM18.3152 14.9971C19.4145 14.9971 20.1377 15.732 20.1377 17.5546C20.1377 19.3772 19.4145 20.1415 18.3152 20.1415C17.187 20.1415 16.4927 19.3772 16.4927 17.5546C16.4927 15.732 17.187 14.9971 18.3152 14.9971ZM16.7819 33.8109H20.022L31.5647 13.3509H28.3246L16.7819 33.8109ZM25.6921 29.5778C25.6921 32.5174 27.5725 34.193 30.0893 34.193C32.5772 34.193 34.4576 32.5174 34.4576 29.5778C34.4576 26.6381 32.5772 24.9919 30.0893 24.9919C27.5725 24.9919 25.6921 26.6381 25.6921 29.5778ZM30.0604 27.0203C31.1597 27.0203 31.8829 27.7552 31.8829 29.5778C31.8829 31.4004 31.1597 32.1353 30.0604 32.1353C28.9611 32.1353 28.2379 31.4004 28.2379 29.5778C28.2379 27.7552 28.9611 27.0203 30.0604 27.0203Z" fill="white"/>
</svg>
