<svg width="48" height="46" viewBox="0 0 48 46" fill="none" xmlns="http://www.w3.org/2000/svg">
<rect x="0.910156" y="0.960938" width="46.8044" height="44.5025" rx="15" fill="#FBA628"/>
<g clip-path="url(#clip0_2415_894)">
<g clip-path="url(#clip1_2415_894)">
<path fill-rule="evenodd" clip-rule="evenodd" d="M16.6563 33.1383V14.6527C16.6563 13.9264 16.9448 13.2298 17.4584 12.7162C17.972 12.2026 18.6685 11.9141 19.3949 11.9141H30.3493C31.0757 11.9141 31.7722 12.2026 32.2858 12.7162C32.7994 13.2298 33.088 13.9264 33.088 14.6527V33.1383C33.088 33.2572 33.0572 33.3741 32.9984 33.4774C32.9396 33.5808 32.8549 33.667 32.7526 33.7277C32.6504 33.7883 32.5341 33.8213 32.4152 33.8234C32.2963 33.8255 32.179 33.7965 32.0747 33.7395L24.8721 29.8096L17.6695 33.7395C17.5652 33.7965 17.4479 33.8255 17.329 33.8234C17.2101 33.8213 17.0938 33.7883 16.9916 33.7277C16.8893 33.667 16.8046 33.5808 16.7458 33.4774C16.687 33.3741 16.6562 33.2572 16.6563 33.1383ZM25.0912 17.5282C25.0712 17.4872 25.04 17.4526 25.0013 17.4283C24.9625 17.4041 24.9178 17.3913 24.8721 17.3913C24.8264 17.3913 24.7817 17.4041 24.7429 17.4283C24.7042 17.4526 24.673 17.4872 24.653 17.5282L23.7849 19.2878C23.7675 19.3234 23.7417 19.3542 23.7097 19.3776C23.6778 19.401 23.6406 19.4162 23.6014 19.422L21.657 19.7041C21.6122 19.7109 21.5702 19.73 21.5357 19.7593C21.5012 19.7886 21.4756 19.827 21.4616 19.87C21.4477 19.9131 21.446 19.9592 21.4568 20.0032C21.4676 20.0472 21.4905 20.0872 21.5228 20.119L22.9277 21.4896C22.9852 21.5458 23.0112 21.6266 22.9975 21.706L22.6675 23.6422C22.6601 23.6869 22.6652 23.7328 22.6824 23.7747C22.6997 23.8167 22.7282 23.853 22.7649 23.8796C22.8016 23.9062 22.845 23.922 22.8902 23.9253C22.9354 23.9286 22.9806 23.9192 23.0208 23.8983L24.7598 22.9836C24.7947 22.9653 24.8334 22.9558 24.8728 22.9558C24.9121 22.9558 24.9509 22.9653 24.9858 22.9836L26.7248 23.8983C26.7649 23.9189 26.81 23.9279 26.8549 23.9244C26.8999 23.921 26.9431 23.9051 26.9795 23.8785C27.016 23.852 27.0444 23.8158 27.0616 23.7741C27.0787 23.7324 27.084 23.6867 27.0767 23.6422L26.7453 21.7046C26.7383 21.6657 26.7409 21.6257 26.7528 21.588C26.7648 21.5503 26.7857 21.5161 26.8138 21.4883L28.2214 20.1176C28.2537 20.0859 28.2766 20.0458 28.2874 20.0018C28.2982 19.9578 28.2965 19.9117 28.2826 19.8687C28.2686 19.8256 28.243 19.7872 28.2085 19.7579C28.174 19.7286 28.132 19.7095 28.0872 19.7027L26.1428 19.4206C26.1036 19.4148 26.0664 19.3996 26.0345 19.3762C26.0025 19.3528 25.9767 19.322 25.9593 19.2864L25.0912 17.5282Z" fill="white"/>
</g>
</g>
<defs>
<clipPath id="clip0_2415_894">
<rect width="23.3255" height="23.3255" fill="white" transform="translate(13.918 11.9141)"/>
</clipPath>
<clipPath id="clip1_2415_894">
<rect width="21.9089" height="21.9089" fill="white" transform="translate(13.918 11.9141)"/>
</clipPath>
</defs>
</svg>
